<svg width="316" height="42" viewBox="0 0 316 42" fill="none" xmlns="http://www.w3.org/2000/svg">
<g clip-path="url(#clip0)">
<rect width="316" height="42" fill="white"/>
<g clip-path="url(#clip1)">
<path d="M32.6655 36.9019C29.0512 39.4714 23.3286 40.5648 18.9476 40.5648C6.95477 40.5648 0 33.1023 0 22.6876C0 11.2342 8.89882 4.4824 19.0572 4.4824C26.1488 4.4824 27.8738 7.29792 28.8322 5.05643L29.106 4.40039H29.8727L31.6798 15.9085L30.0096 16.1818C28.2024 11.3162 24.8619 6.09517 18.9203 6.09517C12.6226 6.09517 7.31072 11.7535 7.31072 22.797C7.31072 32.4463 11.9655 38.8154 19.1667 38.8154C24.0679 38.8154 26.1762 36.1912 26.1762 36.1912V26.1045C26.1762 23.5897 25.2179 22.0589 20.0429 21.8676V20.9655L32.7203 21.0202V36.9019H32.6655Z" fill="#687C66"/>
<path d="M63.9894 27.3903C63.9894 34.9075 58.2394 40.5659 52.0239 40.5659C43.7001 40.5659 38.0322 34.4428 38.0322 26.953C38.0322 19.7365 43.6453 13.9688 49.943 13.9688C58.3215 13.9961 63.9894 19.9278 63.9894 27.3903ZM53.8037 38.6797C56.5144 38.6797 58.1846 35.3995 58.1846 31.2992C58.1846 24.6021 54.3239 15.7455 48.3822 15.7455C45.6715 15.7455 43.8644 18.9437 43.8644 23.0167C43.837 29.7411 47.7525 38.6797 53.8037 38.6797Z" fill="#687C66"/>
<path d="M93.9171 27.3903C93.9171 34.9075 88.1671 40.5659 81.9516 40.5659C73.6278 40.5659 67.96 34.4428 67.96 26.953C67.96 19.7365 73.5731 13.9688 79.8707 13.9688C88.2493 13.9961 93.9171 19.9278 93.9171 27.3903ZM83.7314 38.6797C86.4421 38.6797 88.1124 35.3995 88.1124 31.2992C88.1124 24.6021 84.2517 15.7455 78.31 15.7455C75.5993 15.7455 73.7921 18.9437 73.7921 23.0167C73.7647 29.7411 77.6802 38.6797 83.7314 38.6797Z" fill="#687C66"/>
<path d="M110.784 5.27594V4.0732L121.134 0.820312C121.079 3.33515 121.079 6.5607 121.079 11.399V31.873C121.079 36.2467 121.051 36.6567 124.529 36.7934V37.6134L115.822 40.2376L115.219 35.946C113.604 38.4608 111.222 40.5656 107.607 40.5656C101.474 40.5656 97.6133 34.5792 97.6133 27.5268C97.6133 19.5996 103.528 13.9139 109.798 13.9139C111.523 13.9139 113.467 14.1052 115.082 15.1439V9.75891C115.055 5.33061 114.726 5.35795 110.784 5.27594ZM103.692 23.8912C103.692 31.9277 106.512 36.5747 110.893 36.5747C112.563 36.5747 114.151 35.7273 115.055 34.5519V18.9162C114.151 17.3034 112.125 15.6086 109.442 15.6086C105.663 15.6086 103.692 19.1075 103.692 23.8912Z" fill="#687C66"/>
<path d="M143.805 15.1449L144.052 22.9354H143.011C141.834 18.2337 139.452 15.8283 136.604 15.8283C134.222 15.8283 132.497 17.0583 132.497 18.9445C132.497 20.7486 133.975 21.8693 135.974 23.0174L138.603 24.4935C142.984 26.9537 145.503 28.7578 145.503 32.7487C145.503 37.8877 140.465 40.6212 135.81 40.6212C133.537 40.6212 130.334 39.9925 128.308 38.9538V29.9605L129.239 30.0425C130.279 36.0836 132.497 38.6258 135.974 38.6258C138.548 38.6258 140.876 37.5597 140.876 34.8535C140.876 32.9947 139.452 31.7373 137.124 30.3979L134.605 29.0311C131.183 27.0903 128.308 25.0949 128.308 21.1039C128.308 16.2109 133.127 14.0515 137.371 14.0515C139.37 13.9968 142.19 14.4342 143.805 15.1449Z" fill="#687C66"/>
</g>
<path d="M159 5.19922V29.1992H186.168L175.992 39.3272L178.68 42.0152L193.608 27.0872L178.68 12.1592L175.992 14.7992L186.168 24.9752H163.224V5.19922H159Z" fill="#687C66"/>
<path d="M203.583 5.19922H198.687V39.9992H203.583V5.19922Z" fill="#687C66"/>
<path d="M215.555 14.1752H211.187V39.9992H215.555V25.9832C215.555 20.4632 218.146 17.5352 222.37 17.5352C227.362 17.5352 228.035 20.9912 228.035 24.9752V39.9992H232.402V23.6792C232.402 17.7752 230.147 13.7432 223.907 13.7432C219.539 13.7432 217.043 15.6152 215.555 18.0632V14.1752Z" fill="#687C66"/>
<path d="M256.505 18.2552C254.921 15.5192 252.185 13.7432 248.057 13.7432C241.961 13.7432 237.16 18.6872 237.16 27.1832C237.16 35.7272 241.961 40.6232 248.057 40.6232C252.185 40.6232 254.921 38.8472 256.505 36.1112V39.9992H260.872V5.19922H256.505V18.2552ZM256.697 27.1832C256.697 33.9992 253.048 36.8792 249.16 36.8792C244.504 36.8792 241.912 33.3272 241.912 27.1832C241.912 21.0392 244.504 17.4872 249.16 17.4872C253.048 17.4872 256.697 20.3672 256.697 27.1832Z" fill="#687C66"/>
<path d="M278.517 40.6232C284.901 40.6232 288.741 36.9752 289.941 32.5112H285.429C284.325 35.0552 282.453 36.7832 278.421 36.7832C274.197 36.7832 270.741 33.6632 270.741 28.5272H290.277C290.853 20.3672 286.341 13.7432 278.373 13.7432C271.221 13.7432 265.989 18.9752 265.989 27.1352C265.989 34.7672 270.261 40.6232 278.517 40.6232ZM278.373 17.4872C283.077 17.4872 285.573 21.1352 285.669 24.7832H270.789C270.981 20.1272 273.957 17.4872 278.373 17.4872Z" fill="#687C66"/>
<path d="M315.114 14.1752H310.218L303.882 23.0552L297.594 14.1752H292.362L301.29 26.7032L291.786 39.9992H296.778L303.738 30.1592L310.746 39.9992H315.978L306.33 26.5112L315.114 14.1752Z" fill="#687C66"/>
</g>
<defs>
<clipPath id="clip0">
<rect width="316" height="42" fill="white"/>
</clipPath>
<clipPath id="clip1">
<rect width="146" height="39.9316" fill="white" transform="translate(0 0.820312)"/>
</clipPath>
</defs>
</svg>
