<svg width="30" height="30" viewBox="0 0 30 30" fill="none" xmlns="http://www.w3.org/2000/svg">
<path d="M16.2305 3.79688C16.2305 3.24609 15.7617 2.77734 15.1992 2.77734C14.6484 2.77734 14.1797 3.24609 14.1797 3.79688V6.25781C14.1797 6.80859 14.6484 7.27734 15.1992 7.27734C15.7617 7.27734 16.2305 6.80859 16.2305 6.25781V3.79688ZM20.9883 8.26172C20.6016 8.66016 20.6016 9.31641 20.9883 9.70312C21.3867 10.1016 22.043 10.1133 22.4414 9.70312L24.1875 7.95703C24.5859 7.55859 24.5859 6.90234 24.1875 6.50391C23.8008 6.11719 23.1445 6.11719 22.7578 6.50391L20.9883 8.26172ZM7.95703 9.70312C8.35547 10.1016 9.01172 10.1016 9.39844 9.70312C9.79688 9.32812 9.79688 8.64844 9.41016 8.26172L7.66406 6.50391C7.28906 6.12891 6.62109 6.11719 6.22266 6.50391C5.83594 6.89062 5.83594 7.55859 6.21094 7.94531L7.95703 9.70312ZM15.1992 9.51562C11.9297 9.51562 9.22266 12.2227 9.22266 15.4922C9.22266 18.7617 11.9297 21.4805 15.1992 21.4805C18.457 21.4805 21.1641 18.7617 21.1641 15.4922C21.1641 12.2227 18.457 9.51562 15.1992 9.51562ZM26.8594 16.5117C27.4219 16.5117 27.8906 16.043 27.8906 15.4922C27.8906 14.9414 27.4219 14.4727 26.8594 14.4727H24.4102C23.8594 14.4727 23.3906 14.9414 23.3906 15.4922C23.3906 16.043 23.8594 16.5117 24.4102 16.5117H26.8594ZM3.53906 14.4727C2.98828 14.4727 2.51953 14.9414 2.51953 15.4922C2.51953 16.043 2.98828 16.5117 3.53906 16.5117H5.98828C6.55078 16.5117 7.01953 16.043 7.01953 15.4922C7.01953 14.9414 6.55078 14.4727 5.98828 14.4727H3.53906ZM22.4297 21.293C22.043 20.9062 21.3867 20.9062 20.9883 21.293C20.6016 21.6797 20.6016 22.3359 20.9883 22.7344L22.7578 24.4922C23.1445 24.8789 23.8008 24.8672 24.1875 24.4805C24.5859 24.0938 24.5859 23.4375 24.1875 23.0391L22.4297 21.293ZM6.21094 23.0273C5.82422 23.4141 5.82422 24.082 6.19922 24.4688C6.58594 24.8555 7.25391 24.8672 7.65234 24.4805L9.39844 22.7344C9.79688 22.3477 9.79688 21.6914 9.41016 21.293C9.02344 20.9062 8.35547 20.9062 7.95703 21.293L6.21094 23.0273ZM16.2305 24.7266C16.2305 24.1758 15.7617 23.707 15.1992 23.707C14.6484 23.707 14.1797 24.1758 14.1797 24.7266V27.1875C14.1797 27.7383 14.6484 28.207 15.1992 28.207C15.7617 28.207 16.2305 27.7383 16.2305 27.1875V24.7266Z" fill="#687C66"/>
</svg>
